<svg width="1191" height="842" viewBox="0 0 1191 842" fill="none" xmlns="http://www.w3.org/2000/svg">
<path d="M289.26 385.68V795.67H464.97V665.91L443 609.45V772.61H312.31V405.51C304.63 400.92 289.26 390.53 289.26 385.68Z" fill="#572BB0"/>
<path d="M312.31 634.15H339.89V733.06H415.27V711.14H365.02V610.39H339.89H312.31V634.15Z" fill="#5549C8"/>
<path d="M419.15 437.14V405.52H395.91V437.14H339.89V610.39H365.02V461.4L419.15 460.72V437.14Z" fill="#7459D5"/>
<path d="M562.56 549.96L577.84 534.68L480.3 437.14H419.15V460.72H473.42L513.12 500.58L529.92 517.36L562.56 549.96Z" fill="#5C4B91"/>
<path d="M513.12 500.58L494.99 518.71L463.16 486.89H392.05L415.27 510.56H453.27L494.99 552.29L529.92 517.36L513.12 500.58Z" fill="#6F37CA"/>
<path d="M392.05 486.89V683.62H415.27V510.56L392.05 486.89Z" fill="#5F39AB"/>
<path d="M464.97 665.91L597.81 796.64L723.92 665.91L747.32 610.39L597.81 764.27L504.21 670.66L489.39 655.84L443 609.45L464.97 665.91Z" fill="#5630A1"/>
<path d="M723.92 665.91V795.6H901.29V571.75H877.9V772.44H747.32V610.39L723.92 665.91Z" fill="#624AC4"/>
<path d="M901.29 333.43H672.83L681.98 356.17H775.38H797.91H877.9V547.7V571.75H901.29V333.43Z" fill="#DA5AE0"/>
<path d="M830.16 684.33H854.68V571.75H877.9V547.7H854.68H830.16V684.33Z" fill="#B152C6"/>
<path d="M641.352 512.036L582.747 570.641L598.452 586.346L657.057 527.741L641.352 512.036Z" fill="#B533CF"/>
<path fill-rule="evenodd" clip-rule="evenodd" d="M628.49 592.28L644.49 608.29L664.23 628.03L680.3 611.96L660.2 591.86L742.2 509.85H780.04V733.57H854.68V710.98H802.28V487.74H733.28L711.18 509.85L691.66 490.33L676.29 475.71L657.05 456.47L705.88 407.64H797.91V356.17H775.38V384.92H695.66L597.81 482.77V515.54L639.41 474.13L693.02 527.75L628.49 592.28Z" fill="#B94ACF"/>
<path d="M529.92 554.65L513.91 570.65L598.02 654.76L644.49 608.29L628.49 592.28L598.02 622.75L529.92 554.65Z" fill="#6B38B7"/>
<path d="M752.88 568.99V539.38L680.3 611.96L695.1 626.76L752.88 568.99Z" fill="#CD4CC9"/>
<path d="M544.42 670.66L597.81 724.06L695.1 626.76L680.3 611.96L664.23 628.03L597.81 694.45L559.22 655.86L544.42 670.66Z" fill="#BC48D3"/>
<path d="M488.31 405.52L597.81 515.54V482.77L499.97 384.92L488.31 405.52Z" fill="#9D4AD4"/>
<path d="M518.11 333.43H339.27C338.7 340.79 342.67 355.63 363.07 356.18H509.27L518.11 333.43Z" fill="#8337CB"/>
<path d="M672.83 333.43L597.81 410.45L518.11 333.43L509.27 356.17L597.81 444.72L681.98 356.17L672.83 333.43Z" fill="#9F4FCD"/>
<path d="M722.3 459.69H830.16V547.7H854.68V384.92H830.16V436.51H715.15L676.29 475.71L691.66 490.33L722.3 459.69Z" fill="#C051AD"/>
<path d="M443 539.38V568.99L509.63 635.61L489.39 655.84L504.21 670.66L539.26 635.61L443 539.38Z" fill="#A438C2"/>
<path d="M541.55 92.85C569.46 97.38 592.24 109.18 603.58 117.57C604.46 110.64 606.97 96.2 609.93 93.94C597.52 84.17 575.71 73.23 547.94 69.16L541.55 92.85Z" fill="#D578DF"/>
<path d="M478.35 97.39C500.48 90.05 522.24 89.72 541.55 92.85L547.94 69.16C511.31 63.8 464.3 70.4 414.81 107.48C396.75 122.01 359.35 166.88 354.26 230.09L376.42 249.8C374.81 208.41 392.94 119.97 478.36 97.39H478.35Z" fill="#B14BDB"/>
<path d="M620.61 122.76C620.61 165.57 655.31 200.28 698.12 200.28L698.69 180.07C667.61 180.07 642.42 154.87 642.42 123.79C642.42 92.71 667.61 67.51 698.69 67.51C694.4 62.17 691.95 49.39 698.12 45.24C655.31 45.24 620.61 79.95 620.61 122.76Z" fill="#BB70D9"/>
<path d="M775.64 122.76C775.64 79.95 740.94 45.24 698.13 45.24C691.96 49.39 694.41 62.18 698.7 67.51C729.78 67.51 754.97 92.71 754.97 123.79C754.67 130.81 753.04 146.15 748.96 151.32C744.88 156.49 753.18 161.27 757.84 163.01C785.8 178.07 845.06 218.6 858.49 260.22H858.37C841.32 263.83 841.26 282.1 844.13 289.41H738.75L704.75 257.94H658.29L666.36 271.92H695.68L733.42 309.66C733.42 309.66 831.2 310.2 858.5 309.66C873.04 308.35 898.62 296.63 884.61 260.21C867.1 214.68 797.79 148.87 772.24 145.31C775.6 140.52 775.92 128.26 775.65 122.73L775.64 122.76Z" fill="#D946EF"/>
<path d="M783.211 242.473C794.731 242.382 803.997 232.97 803.906 221.449C803.816 209.929 794.403 200.663 782.883 200.754C771.363 200.844 762.097 210.257 762.187 221.777C762.278 233.297 771.69 242.563 783.211 242.473Z" fill="#E07CE6"/>
<path d="M618.39 270.86L656.68 309.15H704.73L698.61 291.82H664.81L630.95 257.96C629.05 264 624.35 268.8 618.38 270.85L618.39 270.86Z" fill="#CB4DDF"/>
<path fill-rule="evenodd" clip-rule="evenodd" d="M611.88 260.23C616.46 260.23 620.17 256.52 620.17 251.94C620.17 247.36 616.46 243.65 611.88 243.65C607.3 243.65 603.59 247.36 603.59 251.94C603.59 256.52 607.3 260.23 611.88 260.23ZM591.88 251.94C591.88 262.99 600.83 271.94 611.88 271.94C614.16 271.94 616.35 271.56 618.39 270.86C624.36 268.81 629.05 264 630.96 257.97C631.56 256.07 631.88 254.05 631.88 251.95C631.88 240.9 622.93 231.95 611.88 231.95C600.83 231.95 591.88 240.91 591.88 251.95V251.94Z" fill="#CB4DDF"/>
<path d="M521.3 309.69H631.55L613.39 289.43H580.5V191.01L517.08 127.59H492C492.77 129.71 493.19 132 493.19 134.39C493.19 137.5 492.48 140.44 491.22 143.06C491.15 143.21 491.07 143.36 491 143.51H506.7L561.03 197.84V289.42H541.55L521.29 309.68L521.3 309.69Z" fill="#CE4EE3"/>
<path fill-rule="evenodd" clip-rule="evenodd" d="M473.19 142.69C477.77 142.69 481.48 138.98 481.48 134.4C481.48 129.82 477.77 126.11 473.19 126.11C468.61 126.11 464.9 129.82 464.9 134.4C464.9 138.98 468.61 142.69 473.19 142.69ZM491.22 143.07C492.48 140.45 493.19 137.51 493.19 134.4C493.19 132.01 492.77 129.72 492 127.6C489.22 119.9 481.84 114.4 473.18 114.4C462.13 114.4 453.18 123.36 453.18 134.4C453.18 145.44 462.13 154.4 473.18 154.4C480.94 154.4 487.67 149.98 490.99 143.52C491.07 143.37 491.14 143.22 491.21 143.07H491.22Z" fill="#CE4EE3"/>
<path d="M467.607 259.329C479.127 259.236 488.391 249.822 488.299 238.302C488.206 226.782 478.792 217.518 467.272 217.61C455.752 217.703 446.487 227.117 446.58 238.637C446.672 250.157 456.087 259.421 467.607 259.329Z" fill="#AC8AEE"/>
<path fill-rule="evenodd" clip-rule="evenodd" d="M467.45 272.99C486.48 272.99 501.91 257.56 501.91 238.53C501.91 219.5 486.48 204.07 467.45 204.07C448.42 204.07 432.99 219.5 432.99 238.53C432.99 257.56 448.42 272.99 467.45 272.99ZM481.31 180.23C476.86 179.18 472.22 178.62 467.45 178.62C462 178.62 456.73 179.35 451.71 180.71C446.11 182.23 440.83 184.54 436 187.52C435.77 187.66 435.54 187.81 435.31 187.95C427.11 193.16 420.27 200.3 415.42 208.74C412.84 213.23 410.82 218.08 409.46 223.2C408.16 228.11 407.46 233.28 407.46 238.6C407.46 243.92 408.15 249.08 409.46 254C410.7 258.69 412.5 263.15 414.77 267.31C419.76 276.44 427.04 284.12 435.86 289.59C440.18 292.27 444.86 294.42 449.82 295.94C455.39 297.65 461.32 298.57 467.45 298.57C472.18 298.57 476.77 298.02 481.18 296.99C487.42 295.53 493.28 293.1 498.59 289.86C498.75 289.76 498.92 289.66 499.08 289.56C507.18 284.52 514 277.6 518.91 269.41C521.85 264.51 524.11 259.15 525.56 253.47C526.77 248.72 527.42 243.74 527.42 238.61C527.42 233.18 526.7 227.92 525.35 222.92C523.85 217.35 521.56 212.11 518.62 207.31C518.6 207.29 518.59 207.26 518.57 207.24C518.57 207.23 518.55 207.21 518.55 207.2C513.38 198.81 506.21 191.79 497.69 186.81C492.65 183.86 487.14 181.63 481.3 180.25L481.31 180.23Z" fill="#A94BD6"/>
<path d="M518.55 207.18L518.57 207.22L524.97 196.14L509.06 180.23L497.69 186.79C506.2 191.77 513.38 198.79 518.55 207.18ZM527.43 238.6C527.43 243.73 526.79 248.71 525.57 253.46L537.92 250.15V226.27L525.35 222.9C526.7 227.9 527.42 233.16 527.42 238.59L527.43 238.6ZM467.45 178.62C472.22 178.62 476.86 179.18 481.31 180.23L477.94 167.66H455.21L451.71 180.71C456.73 179.35 462 178.62 467.45 178.62ZM415.42 208.74C420.27 200.3 427.12 193.16 435.31 187.95C435.54 187.8 435.77 187.66 436 187.52L423.84 180.5L408.16 196.18L415.42 208.75V208.74ZM409.47 254C408.17 249.09 407.47 243.93 407.47 238.6C407.47 233.27 408.16 228.12 409.47 223.2L395.42 226.97V250.23L409.47 254ZM424.11 296.38L435.87 289.59C427.06 284.12 419.77 276.43 414.78 267.31L407.55 279.82L424.11 296.37V296.38ZM477.73 309.89L481.19 296.99C476.78 298.02 472.18 298.57 467.46 298.57C461.32 298.57 455.4 297.65 449.83 295.94L453.57 309.89H477.74H477.73ZM518.92 269.41C514.01 277.6 507.19 284.52 499.09 289.56C498.93 289.66 498.76 289.76 498.6 289.86L509.2 295.98L525.09 280.09L518.92 269.4V269.41Z" fill="#A94BD6"/>
<path d="M395.91 405.52H488.31L499.97 384.92H367.92C367.92 384.92 312.31 365.41 312.31 309.89C312.31 254.37 376.42 249.8 376.42 249.8L354.26 230.09C354.26 230.09 289.27 233.68 289.27 309.68C289.27 385.68 365.02 405.51 365.02 405.51H395.91V405.52Z" fill="#7738BD"/>
<path fill-rule="evenodd" clip-rule="evenodd" d="M718.73 240.23C723.31 240.23 727.02 236.52 727.02 231.94C727.02 227.36 723.31 223.65 718.73 223.65C714.15 223.65 710.44 227.36 710.44 231.94C710.44 236.52 714.15 240.23 718.73 240.23ZM718.73 251.94C729.78 251.94 738.73 242.98 738.73 231.94C738.73 220.9 729.78 211.94 718.73 211.94C710.39 211.94 703.24 217.05 700.24 224.3C700.14 224.55 700.04 224.81 699.94 225.06C699.15 227.2 698.73 229.52 698.73 231.94C698.73 234.9 699.37 237.71 700.53 240.23C703.68 247.14 710.65 251.94 718.74 251.94H718.73Z" fill="#BE90F5"/>
<path fill-rule="evenodd" clip-rule="evenodd" d="M570.95 144.15C575.53 144.15 579.24 140.44 579.24 135.86C579.24 131.28 575.53 127.57 570.95 127.57C566.37 127.57 562.66 131.28 562.66 135.86C562.66 140.44 566.37 144.15 570.95 144.15ZM550.95 135.85C550.95 146.9 559.9 155.85 570.95 155.85C572.96 155.85 574.9 155.55 576.73 155C583.08 153.09 588.1 148.1 590.06 141.77C590.64 139.9 590.95 137.91 590.95 135.84C590.95 124.79 582 115.84 570.95 115.84C559.9 115.84 550.95 124.8 550.95 135.84V135.85Z" fill="#BE90F5"/>
<path d="M576.73 155.01L598.14 171.73L622.22 211.92L650.54 240.24H700.52C699.37 237.71 698.72 234.9 698.72 231.95C698.72 229.53 699.15 227.22 699.93 225.07C700.02 224.81 700.12 224.56 700.23 224.31H658.26L629.59 195.64L613.07 164.81L590.06 141.8C588.1 148.13 583.08 153.11 576.73 155.03V155.01Z" fill="#BE90F5"/>
</svg>
